<svg xmlns="http://www.w3.org/2000/svg" viewBox="0 0 24 24" fill="#fff"><path d="M20.52 3.48A11.87 11.87 0 0 0 12.05 0C5.47 0 .12 5.35.12 11.93c0 2.1.55 4.16 1.6 5.97L0 24l6.25-1.64a11.88 11.88 0 0 0 5.8 1.48h.01c6.58 0 11.93-5.35 11.94-11.93 0-3.19-1.24-6.19-3.48-8.43ZM12.06 21.83a9.86 9.86 0 0 1-5.04-1.38l-.36-.21-3.71.97.99-3.62-.23-.37a9.86 9.86 0 0 1-1.51-5.29c0-5.47 4.45-9.92 9.86-9.92a9.82 9.82 0 0 1 7.03 2.92 9.86 9.86 0 0 1 2.91 7.03c0 5.47-4.45 9.87-9.94 9.87Zm5.44-7.4c-.3-.15-1.76-.87-2.03-.97-.27-.1-.47-.15-.67.15-.2.3-.77.97-.94 1.17-.17.2-.35.22-.64.07-.3-.15-1.26-.46-2.4-1.48-.89-.8-1.49-1.78-1.66-2.08-.17-.3-.02-.46.13-.6.13-.13.3-.35.45-.52.15-.17.2-.3.3-.5.1-.2.05-.37-.02-.52-.08-.15-.67-1.61-.92-2.2-.24-.58-.49-.5-.67-.51h-.57c-.2 0-.52.07-.79.37-.27.3-1.04 1.02-1.04 2.48s1.07 2.87 1.21 3.07c.15.2 2.1 3.2 5.09 4.49.71.3 1.27.49 1.7.63.72.23 1.38.2 1.9.12.58-.09 1.76-.72 2.01-1.42.25-.69.25-1.29.17-1.42-.07-.12-.27-.2-.56-.34Z"/></svg>
